<svg width="152" height="34" viewBox="0 0 152 34" fill="none" xmlns="http://www.w3.org/2000/svg">
<path d="M46.168 11H49.192V23H46.168V11ZM50.7936 13.88H53.7536L54.3456 17.432V23H51.3696V16.984L50.7936 13.88ZM57.7536 13.624C58.6283 13.624 59.3696 13.8 59.9776 14.152C60.5963 14.4933 61.0656 14.984 61.3856 15.624C61.7163 16.264 61.8816 17.0267 61.8816 17.912V23H58.9056V18.36C58.9056 17.6027 58.719 17.032 58.3456 16.648C57.9723 16.2533 57.439 16.056 56.7456 16.056C56.255 16.056 55.8283 16.1627 55.4656 16.376C55.1136 16.5787 54.8363 16.872 54.6336 17.256C54.4416 17.6293 54.3456 18.0773 54.3456 18.6L53.4016 18.104C53.519 17.1333 53.7803 16.3173 54.1856 15.656C54.6016 14.9947 55.1136 14.4933 55.7216 14.152C56.3403 13.8 57.0176 13.624 57.7536 13.624ZM69.6806 12.648C69.03 12.648 68.5553 12.7707 68.2566 13.016C67.9686 13.2613 67.8246 13.6613 67.8246 14.216V23H64.8486V14.504C64.8486 13.6507 65.014 12.92 65.3446 12.312C65.686 11.704 66.1873 11.24 66.8486 10.92C67.5206 10.5893 68.3526 10.424 69.3446 10.424C69.75 10.424 70.118 10.4613 70.4486 10.536C70.79 10.6 71.126 10.6907 71.4566 10.808V13.016C71.1793 12.8987 70.8966 12.808 70.6086 12.744C70.3206 12.68 70.0113 12.648 69.6806 12.648ZM62.9766 16.824V14.6H71.3286V16.824H62.9766ZM72.8326 10.68H75.7926V23H72.8326V10.68ZM81.598 23.24C80.7447 23.24 80.0193 23.0693 79.422 22.728C78.8247 22.376 78.366 21.88 78.046 21.24C77.7367 20.6 77.582 19.8427 77.582 18.968V13.88H80.558V18.536C80.558 19.272 80.734 19.8373 81.086 20.232C81.438 20.6267 81.9447 20.824 82.606 20.824C83.0967 20.824 83.5127 20.7227 83.854 20.52C84.1953 20.3173 84.4567 20.024 84.638 19.64C84.83 19.256 84.926 18.8027 84.926 18.28L85.854 18.776C85.7473 19.736 85.4913 20.552 85.086 21.224C84.6913 21.8853 84.19 22.3867 83.582 22.728C82.9847 23.0693 82.3233 23.24 81.598 23.24ZM85.502 23L84.926 19.448V13.88H87.902V19.896L88.478 23H85.502ZM95.1451 23.256C94.0571 23.256 93.0811 23.0533 92.2171 22.648C91.3638 22.2427 90.6918 21.6773 90.2011 20.952C89.7105 20.2267 89.4651 19.3787 89.4651 18.408C89.4651 17.4587 89.6998 16.6267 90.1691 15.912C90.6385 15.1973 91.2838 14.6373 92.1051 14.232C92.9371 13.8267 93.8758 13.624 94.9211 13.624C95.9878 13.624 96.9051 13.8587 97.6731 14.328C98.4411 14.7973 99.0331 15.4587 99.4491 16.312C99.8651 17.1653 100.073 18.168 100.073 19.32H91.8491V17.448H98.4411L97.3691 18.12C97.3371 17.6187 97.2145 17.1973 97.0011 16.856C96.7985 16.504 96.5265 16.2373 96.1851 16.056C95.8438 15.864 95.4385 15.768 94.9691 15.768C94.4571 15.768 94.0145 15.8693 93.6411 16.072C93.2678 16.2747 92.9745 16.5573 92.7611 16.92C92.5585 17.2827 92.4571 17.704 92.4571 18.184C92.4571 18.792 92.5905 19.3093 92.8571 19.736C93.1345 20.1627 93.5291 20.488 94.0411 20.712C94.5638 20.936 95.1985 21.048 95.9451 21.048C96.6278 21.048 97.3105 20.9573 97.9931 20.776C98.6758 20.584 99.2891 20.3173 99.8331 19.976V21.912C99.2145 22.3387 98.5051 22.6693 97.7051 22.904C96.9158 23.1387 96.0625 23.256 95.1451 23.256ZM101.09 13.88H104.051L104.643 17.432V23H101.667V16.984L101.09 13.88ZM108.051 13.624C108.925 13.624 109.667 13.8 110.275 14.152C110.893 14.4933 111.363 14.984 111.683 15.624C112.013 16.264 112.179 17.0267 112.179 17.912V23H109.203V18.36C109.203 17.6027 109.016 17.032 108.642 16.648C108.269 16.2533 107.736 16.056 107.043 16.056C106.552 16.056 106.125 16.1627 105.763 16.376C105.411 16.5787 105.133 16.872 104.931 17.256C104.739 17.6293 104.643 18.0773 104.643 18.6L103.699 18.104C103.816 17.1333 104.077 16.3173 104.483 15.656C104.899 14.9947 105.411 14.4933 106.019 14.152C106.637 13.8 107.315 13.624 108.051 13.624ZM113.624 23V20.92L120.12 15.592L122.168 16.04H113.672V13.88H123.288V15.96L116.808 21.288L115.064 20.84H123.32V23H113.624ZM124.898 13.752L126.37 14.056L127.858 13.752V23H124.898V13.752ZM126.386 12.92C125.863 12.92 125.436 12.7867 125.106 12.52C124.775 12.2427 124.61 11.88 124.61 11.432C124.61 10.9733 124.775 10.6107 125.106 10.344C125.436 10.0773 125.863 9.944 126.386 9.944C126.919 9.944 127.346 10.0773 127.666 10.344C127.986 10.6107 128.146 10.9733 128.146 11.432C128.146 11.88 127.986 12.2427 127.666 12.52C127.346 12.7867 126.919 12.92 126.386 12.92ZM129.773 10.68H132.733V23H129.773V10.68ZM134.648 10.68H137.608V23H134.648V10.68ZM147.811 23L147.411 19.688L147.843 18.44L147.411 17.208L147.811 13.88H150.899L150.339 18.44L150.899 23H147.811ZM148.547 18.44C148.387 19.4107 148.083 20.2587 147.635 20.984C147.187 21.6987 146.621 22.2587 145.939 22.664C145.256 23.0587 144.488 23.256 143.635 23.256C142.739 23.256 141.949 23.0533 141.267 22.648C140.595 22.2427 140.067 21.6827 139.683 20.968C139.299 20.2427 139.107 19.4 139.107 18.44C139.107 17.48 139.299 16.6427 139.683 15.928C140.067 15.2027 140.595 14.6373 141.267 14.232C141.949 13.8267 142.739 13.624 143.635 13.624C144.488 13.624 145.256 13.8267 145.939 14.232C146.621 14.6267 147.187 15.1813 147.635 15.896C148.093 16.6107 148.397 17.4587 148.547 18.44ZM142.115 18.44C142.115 18.9307 142.216 19.368 142.419 19.752C142.621 20.1253 142.899 20.424 143.251 20.648C143.613 20.8613 144.029 20.968 144.499 20.968C144.968 20.968 145.411 20.8613 145.827 20.648C146.253 20.424 146.627 20.1253 146.947 19.752C147.267 19.368 147.507 18.9307 147.667 18.44C147.507 17.9493 147.267 17.5173 146.947 17.144C146.627 16.76 146.253 16.4613 145.827 16.248C145.411 16.024 144.968 15.912 144.499 15.912C144.029 15.912 143.613 16.024 143.251 16.248C142.899 16.4613 142.621 16.76 142.419 17.144C142.216 17.5173 142.115 17.9493 142.115 18.44Z" fill="white"/>
<path d="M17 0L19.2209 10.8982L27.9274 3.97724L22.6235 13.7533L33.7417 14.048L23.3948 18.1276L31.7224 25.5L21.1739 21.9743L22.8143 32.9748L17 23.4934L11.1857 32.9748L12.8261 21.9743L2.27757 25.5L10.6052 18.1276L0.258268 14.048L11.3765 13.7533L6.07261 3.97724L14.7791 10.8982L17 0Z" fill="white"/>
</svg>
