<svg width="29" height="29" viewBox="0 0 29 29" fill="none" xmlns="http://www.w3.org/2000/svg">
<path d="M17.6509 6.88508L23.0463 4.31497L21.4521 10.0746L21.3165 10.5645L21.8085 10.692L27.5936 12.1912L22.6702 15.5787L22.2514 15.8668L22.5464 16.2807L26.0143 21.1478L20.0654 20.578L19.5594 20.5295L19.5192 21.0362L19.0474 26.9938L14.8564 22.7334L14.5 22.371L14.1436 22.7334L9.95263 26.9938L9.48075 21.0362L9.44062 20.5295L8.93464 20.578L2.98566 21.1478L6.45361 16.2807L6.74857 15.8668L6.32982 15.5787L1.40637 12.1912L7.19147 10.692L7.68351 10.5645L7.54792 10.0746L5.95374 4.31497L11.3491 6.88508L11.808 7.10367L12.019 6.64125L14.5 1.20438L16.981 6.64125L17.192 7.10367L17.6509 6.88508Z" stroke="white"/>
</svg>
